<svg xmlns="http://www.w3.org/2000/svg" version="1.1" xmlns:xlink="http://www.w3.org/1999/xlink" xmlns:svgjs="http://svgjs.com/svgjs" width="98.53" height="88.84"><svg xmlns="http://www.w3.org/2000/svg" viewBox="0 0 98.53 88.84"><defs><style>.cls-1{fill:#231f20;}.cls-2{fill:#f36e21;}.cls-3{fill:#fff;}.cls-4{fill:none;}</style></defs><g id="SvgjsG1001" data-name="Layer 2"><g id="SvgjsG1000" data-name="Layer 6"><circle class="cls-1" cx="44.42" cy="44.42" r="44.42"></circle><path class="cls-2" d="M76.87,42.06a40.25,40.25,0,0,1-3.61,2.7l-.8.5-.73.45A26.58,26.58,0,0,1,71,51c-.06.24-.12.48-.19.72s-.13.48-.21.72a27.89,27.89,0,0,1-2,4.88c-.11.23-.24.44-.36.66l-.39.64A26.44,26.44,0,0,1,64.43,63c-.17.19-.34.37-.52.54s-.35.36-.53.53a26.75,26.75,0,0,1-4.86,3.74l-.65.38q-.33.2-.66.36a26.15,26.15,0,0,1-5.1,2.09l-.72.2-.73.18a27.59,27.59,0,0,1-5.49.71h-1.5A26.79,26.79,0,0,1,38.11,71c-.25,0-.49-.11-.74-.18l-.71-.2a27,27,0,0,1-4.82-2l-.66-.35c-.21-.12-.44-.25-.65-.39a26.94,26.94,0,0,1-5.11-3.89l-.54-.53c-.17-.18-.35-.36-.51-.55a26.52,26.52,0,0,1-3.14-4.1c-.14-.21-.26-.42-.39-.64h0c-.13-.21-.25-.43-.37-.65a26.61,26.61,0,0,1-2.26-5.38L18,51.48l-.18-.73a26.7,26.7,0,0,1-.73-5.49c0-.24,0-.49,0-.74v-.75a27.27,27.27,0,0,1,.74-5.69l.18-.74.21-.71a26.89,26.89,0,0,1,2.09-5.07c.11-.22.24-.44.36-.65s.25-.44.38-.65a26.67,26.67,0,0,1,3.27-4.34l.52-.54.53-.54a26.09,26.09,0,0,1,4.5-3.54c.21-.15.42-.27.63-.4l.43-.26.22-.12a26.92,26.92,0,0,1,3.44-1.61c.62-.24,1.25-.46,1.88-.64l.72-.21c.24-.07.49-.14.73-.19a27.29,27.29,0,0,1,5.76-.79h1.5a27.46,27.46,0,0,1,5.31.67l.73.17.72.2A27.63,27.63,0,0,1,56,19.66c.36-.17.71-.34,1.08-.5,1.59-.72,3.28-1.39,5-2a32.56,32.56,0,0,0-29.69-3,30.51,30.51,0,0,0-3.65,1.74A32.53,32.53,0,1,0,77,44.41C77,43.62,76.93,42.84,76.87,42.06Z"></path><path class="cls-2" d="M45.17,58.4V73.35h-1.5V58.29h.75A3.29,3.29,0,0,0,45.17,58.4Z"></path><path class="cls-2" d="M45.17,15.69V26.2l-.75.57h-.75V15.69Z"></path><path class="cls-2" d="M41.44,58.25,38.11,71l-.26,1-1.45-.38.25-1h0l3.23-12.4c.3-.08.57-.13.83-.18Z"></path><path class="cls-2" d="M52.44,16.19l-.51,1.93-1.12,4.31c-.32.18-.62.37-.92.56l-.73-.19,1.32-5.05L51,15.81Z"></path><path class="cls-2" d="M36.74,60l-4.9,8.66-1,1.74-1.3-.74,1-1.74,4.34-7.65c.43-.24.82-.44,1.22-.63h0Z"></path><path class="cls-2" d="M52.64,72.61,51.19,73l-.53-2L47.31,58.6l.73-.2a6.15,6.15,0,0,0,.75-.07l3.32,12.33Z"></path><path class="cls-2" d="M41.06,29.59l-.63.57-.72.19L36.46,18.27l-.25-.95,1.44-.39.26.94Z"></path><path class="cls-2" d="M59.51,69.55l-1.3.75-1-1.73-6-10.43.64-.37h0l.75-.21,5.94,10.27Z"></path><path class="cls-2" d="M38.06,32.48l-.54.57-.65.38-7-12.13-.53-.92,1.3-.75.51.89Z"></path><path class="cls-2" d="M35.76,35l-.49.57-.52.54L24.31,25.92l-1-1,1.05-1.07,1,1Z"></path><path class="cls-2" d="M33.65,37.43l-.37.65-.45.61L20.3,31.56,19,30.82l.73-1.31,1.32.75Z"></path><path class="cls-2" d="M31.45,40.23l-.19.72-.44.66-13-3.53-1.42-.39.39-1.45,1.42.39Z"></path><path class="cls-2" d="M29.05,43.77v.75l-.41.74H15.58V43.77Z"></path><path class="cls-2" d="M26.72,49.15l-.38.88L18.21,52.2l-1.45.39-.39-1.45,1.45-.39,8.7-2.32Z"></path><path class="cls-2" d="M28.83,60.74l-3.41,3.32-1.14,1.1-1.05-1.07L24.37,63l3.18-3.1a7,7,0,0,0,.75.32Z"></path><path class="cls-2" d="M25,56.7l-3.73,2.18-1.36.79-.75-1.3,1.35-.79,3.94-2.29.38.65A4.91,4.91,0,0,0,25,56.7Z"></path><path class="cls-3" d="M62.11,35.87a67.74,67.74,0,0,0,8.63.73c2.18,0,4.09-.23,4.77-.93-.52.56-8.87,9.22-20.85,9.22a25,25,0,0,1-3-.17s4.35,2.15,7.77,2.15a5.51,5.51,0,0,0,2.08-.36s-7.7,6.19-14.89,6.19l-.77,0a8.49,8.49,0,0,0-3.36-.55c-2.35,0-5.88.62-10.44,3.2.63-.57,20.93-18.6,36-26.79C67.45,28.8,50.27,35.7,30,54.72l.69-1.86S42.08,17.55,88.71,17.55c1.35,0,2.73,0,4.15.09C92.86,17.64,87.35,32.39,62.11,35.87Z"></path><path class="cls-4" d="M93,13.65c-1.45-.07-2.9-.1-4.32-.1-12.73,0-23,2.56-31.06,6.2A60.12,60.12,0,0,0,39.35,32.4,54.29,54.29,0,0,0,26.89,51.53l-.67,1.79-1,2.81L1.55,77.22l20-11.32L20.3,69.26l7.16-6.71L34,58.82c3.93-2.22,6.79-2.69,8.49-2.69a6.24,6.24,0,0,1,1.72.2l.74.43.64-.09c.34,0,.69,0,1,0,3.66,0,7.72-1.21,12.06-3.59a41,41,0,0,0,5.34-3.48l6.29-5.06a36,36,0,0,0,8.05-6.14l0,0,.07-.08-.18-.17,7.94-6.38-2.73,1.15c10-6,12.89-13.42,13.06-13.88l1.93-5.16Zm1.7,4.69c-.2.53-4.24,10.84-20,16.55L77,37,77,37a34,34,0,0,1-7.79,5.9l-6.37,5.13c-.34.27-8.35,6.63-16.15,6.63l-.9,0-.38,0L45,54.49a7.19,7.19,0,0,0-2.5-.36c-1.94,0-5.16.51-9.48,2.95l-6.78,3.85L25.14,62l.19-.53-8.52,4.82,10.07-9,1.91-5.13c.09-.28,12.39-36.61,59.92-36.61,1.39,0,2.81,0,4.23.09l2.75.12ZM61.56,46.51h0m14-10.87,0,0M32.09,55.33h0m36-26.8h0"></path><path class="cls-1" d="M92.94,15.64c-1.42-.06-2.84-.09-4.23-.09-47.53,0-59.83,36.33-59.92,36.61l-1.91,5.13,1.94,2.19,4.23-2.4c4.32-2.44,7.54-2.95,9.48-2.95a7.19,7.19,0,0,1,2.5.36l.35.16.38,0,.9,0c7.8,0,15.81-6.36,16.15-6.63l6.37-5.13A34,34,0,0,0,77,37L77,37l-2.29-2.09c15.76-5.71,19.8-16,20-16.55l1-2.58ZM62.11,35.87a67.74,67.74,0,0,0,8.63.73c2.18,0,4.09-.23,4.77-.93-.52.56-8.87,9.22-20.85,9.22a25,25,0,0,1-3-.17s4.35,2.15,7.77,2.15a5.51,5.51,0,0,0,2.08-.36s-7.7,6.19-14.89,6.19l-.77,0a8.49,8.49,0,0,0-3.36-.55c-2.35,0-5.88.62-10.44,3.2.63-.57,20.89-18.57,36-26.77C66.91,29,50,36,30,54.72l.69-1.86S42.08,17.55,88.71,17.55c1.35,0,2.73,0,4.15.09C92.86,17.64,87.35,32.39,62.11,35.87Z"></path><polygon class="cls-4" points="28.82 59.48 26.27 60.93 25.14 61.99 25.33 61.46 16.81 66.28 26.88 57.29 28.82 59.48"></polygon></g></g></svg><style>@media (prefers-color-scheme: light) { :root { filter: contrast(1) brightness(1); } }
@media (prefers-color-scheme: dark) { :root { filter: contrast(1) brightness(1); } }
</style></svg>